<?xml version="1.0" encoding="UTF-8"?>
<svg width="42px" height="50px" viewBox="0 0 42 50" version="1.1" xmlns="http://www.w3.org/2000/svg" xmlns:xlink="http://www.w3.org/1999/xlink">
    <!-- Generator: Sketch 55.2 (78181) - https://sketchapp.com -->
    <title>Fill 20</title>
    <desc>Created with Sketch.</desc>
    <g id="Page-1" stroke="none" stroke-width="1" fill="none" fill-rule="evenodd">
        <path d="M23.776,12.386 L10.844,39.408 C10.325,40.494 9.405,41.093 8.254,41.093 C6.694,41.093 5.375,39.805 5.375,38.279 C5.375,37.872 5.475,37.438 5.681,36.956 L5.698,36.92 L18.613,9.934 C19.132,8.847 20.052,8.249 21.202,8.249 C22.763,8.249 24.081,9.537 24.081,11.062 C24.081,11.467 23.979,11.913 23.776,12.386 Z M32.708,23.543 C36.234,21.569 39.194,18.468 39.194,12.899 L39.194,12.758 C39.194,9.374 38.066,6.625 35.811,4.369 C32.991,1.55 28.549,0 22.91,0 L5.429,0 C2.398,0 0,2.396 0,5.427 L0,25.893 L7.638,9.934 C8.158,8.847 9.078,8.249 10.228,8.249 C11.789,8.249 13.107,9.537 13.107,11.062 C13.107,11.467 13.004,11.913 12.801,12.386 L0,39.135 L0,43.915 C0,46.946 2.398,49.343 5.429,49.343 L23.475,49.343 C34.612,49.343 41.943,44.831 41.943,35.809 L41.943,35.668 C41.943,29.042 38.418,25.728 32.708,23.543 L32.708,23.543 Z" id="Fill-20" fill="#000000"></path>
    </g>
</svg>