<?xml version="1.0" standalone="no"?>
<!DOCTYPE svg PUBLIC "-//W3C//DTD SVG 20010904//EN"
 "http://www.w3.org/TR/2001/REC-SVG-20010904/DTD/svg10.dtd">
<svg version="1.0" xmlns="http://www.w3.org/2000/svg"
 width="800.000000pt" height="800.000000pt" viewBox="0 0 800.000000 800.000000"
 preserveAspectRatio="xMidYMid meet">
<metadata>
Created by potrace 1.11, written by Peter Selinger 2001-2013
</metadata>
<g transform="translate(0.000000,800.000000) scale(0.100000,-0.100000)"
fill="#000000" stroke="none">
<path d="M1346 7985 c-191 -39 -318 -107 -456 -245 -66 -66 -170 -213 -170
-240 0 -6 -4 -18 -9 -28 -19 -37 -31 -69 -48 -127 -16 -56 -18 -175 -20 -1762
-3 -1160 0 -1703 7 -1703 5 0 10 4 10 9 0 6 30 72 67 148 37 76 67 140 68 143
1 6 84 178 131 273 18 37 30 67 26 67 -4 0 -2 4 3 8 6 4 15 18 22 32 7 14 40
84 74 155 34 72 89 186 122 255 33 69 77 161 97 205 39 84 170 355 246 511 24
50 44 96 44 102 0 7 5 12 10 12 6 0 10 5 10 12 0 11 51 124 71 158 5 8 12 22
16 30 14 35 115 244 173 362 58 119 110 189 182 244 24 19 100 50 143 60 83
18 80 18 160 10 111 -12 190 -51 275 -136 71 -71 109 -137 127 -220 9 -42 9
-136 1 -173 -5 -23 -11 -49 -13 -57 -4 -19 -39 -98 -106 -235 -29 -60 -54
-112 -54 -115 -2 -8 -95 -204 -105 -220 -6 -8 -14 -24 -19 -36 -15 -34 -148
-314 -260 -545 -22 -47 -41 -91 -41 -98 0 -6 -4 -11 -10 -11 -5 0 -10 -6 -10
-12 0 -7 -20 -53 -45 -102 -25 -49 -45 -95 -45 -102 0 -8 -4 -14 -10 -14 -5 0
-10 -4 -10 -9 0 -6 -26 -63 -57 -128 -31 -65 -57 -120 -58 -123 -2 -5 -43 -92
-170 -355 -37 -77 -87 -180 -110 -230 -23 -49 -73 -153 -110 -230 -196 -409
-280 -586 -296 -622 -8 -18 -17 -33 -21 -33 -5 0 -8 -6 -8 -14 0 -8 -20 -55
-45 -105 -25 -50 -45 -96 -45 -101 0 -6 -4 -10 -10 -10 -5 0 -9 -3 -8 -7 2 -5
-11 -37 -29 -73 -33 -69 -121 -252 -210 -440 -30 -63 -79 -165 -109 -226 -30
-62 -54 -117 -54 -123 0 -6 -5 -11 -11 -11 -7 0 -9 -141 -7 -467 l4 -468 27
-89 c35 -114 59 -166 113 -246 63 -94 160 -190 249 -248 41 -26 181 -91 207
-96 15 -2 31 -7 36 -10 10 -6 49 -13 129 -24 67 -9 3182 -7 3318 2 148 9 238
16 275 22 19 2 59 7 88 9 29 3 65 7 80 10 15 3 47 8 72 12 41 5 206 37 255 48
11 3 34 8 50 11 17 2 48 10 70 16 22 5 45 11 50 12 6 1 37 10 70 20 33 10 65
19 70 21 6 1 17 4 25 7 8 3 44 16 80 28 79 28 229 88 250 101 8 5 22 12 30 15
35 14 182 93 255 137 32 20 188 130 214 152 165 139 275 260 377 415 70 107
69 107 113 195 96 199 159 417 188 655 16 132 6 639 -13 672 -2 3 -7 28 -10
54 -3 27 -7 51 -10 55 -2 4 -6 23 -10 43 -23 148 -127 398 -231 558 -119 182
-298 361 -513 510 -139 96 -339 202 -535 283 -149 62 -140 53 -95 86 22 16 47
29 55 29 8 0 15 4 15 8 0 5 11 14 25 20 14 7 31 17 38 22 7 6 59 45 117 87 58
43 157 130 220 194 132 134 149 154 199 229 20 30 39 57 42 60 3 3 21 32 39
65 18 33 36 65 40 70 18 23 138 330 130 330 -1 0 1 7 3 15 4 13 11 45 34 150
20 95 28 202 28 395 0 177 -4 252 -19 360 -8 52 -37 189 -43 205 -4 8 -8 20
-9 25 -3 15 -2 14 -29 90 -14 39 -27 77 -29 85 -7 25 -76 161 -118 233 -54 94
-173 248 -255 332 -85 88 -217 205 -231 205 -6 0 -12 4 -14 9 -12 34 -471 291
-519 291 -8 0 -19 4 -24 9 -20 18 -355 119 -453 136 -18 3 -63 12 -100 19 -37
8 -92 17 -122 21 -30 3 -62 8 -70 10 -8 2 -51 7 -95 11 -44 3 -89 9 -100 12
-11 3 -749 7 -1640 8 -1346 2 -1632 0 -1689 -11z m2741 -1310 c161 -14 313
-133 377 -295 28 -71 37 -192 17 -242 -6 -16 -8 -28 -6 -28 8 0 -31 -92 -91
-217 -31 -65 -79 -165 -106 -223 -28 -58 -70 -145 -94 -194 -24 -49 -44 -95
-44 -102 0 -8 -4 -14 -10 -14 -5 0 -10 -4 -10 -9 0 -10 -60 -138 -190 -406
-45 -93 -93 -195 -107 -225 -14 -30 -61 -128 -104 -218 -44 -90 -79 -168 -79
-173 0 -5 -5 -9 -12 -9 -6 0 -9 -3 -5 -6 3 -4 -7 -30 -22 -59 -16 -29 -33 -65
-39 -81 -7 -16 -16 -36 -21 -44 -9 -13 -53 -106 -161 -335 -16 -33 -31 -67
-34 -75 -3 -8 -10 -22 -15 -30 -18 -27 -151 -311 -151 -321 0 -5 -5 -9 -12 -9
-6 0 -9 -3 -5 -6 3 -4 -5 -27 -18 -53 -13 -25 -51 -103 -84 -173 -34 -71 -89
-185 -122 -255 -34 -71 -83 -173 -109 -228 -26 -55 -75 -158 -109 -228 -33
-70 -61 -132 -61 -138 0 -5 -4 -9 -10 -9 -5 0 -10 -4 -10 -10 0 -10 -43 -103
-119 -260 -22 -47 -41 -91 -41 -97 0 -7 -3 -13 -8 -13 -4 0 -13 -15 -21 -33
-110 -254 -191 -352 -331 -404 -115 -43 -254 -34 -370 25 -104 52 -210 183
-236 289 -21 88 -10 210 29 302 5 14 11 28 11 31 5 19 32 70 38 70 5 0 8 6 8
13 0 7 11 35 24 63 13 27 56 114 94 194 38 80 93 195 122 255 29 61 72 151 95
200 24 50 83 173 132 275 49 102 98 203 107 225 17 39 26 57 46 93 12 23 153
316 154 322 1 3 16 34 33 70 17 36 58 121 91 190 107 226 173 363 227 475 115
237 169 350 170 355 1 3 25 55 54 115 29 61 78 162 108 225 86 179 160 333
233 485 37 77 88 183 113 235 25 52 77 162 116 243 39 82 71 153 71 158 0 5 5
9 10 9 6 0 9 4 8 8 -5 15 39 93 75 133 9 10 17 22 17 27 1 4 24 25 52 46 59
46 143 82 213 91 27 3 51 8 54 10 2 3 7 2 12 -1 4 -2 30 -7 56 -9z"/>
</g>
</svg>
